<svg width="646" height="646" viewBox="0 0 646 646" fill="none" xmlns="http://www.w3.org/2000/svg">
<g filter="url(#filter0_f_2_323)">
<path fill-rule="evenodd" clip-rule="evenodd" d="M520.563 383.646C532.437 391.845 546.837 396.647 562.358 396.647C603.032 396.647 636.005 363.674 636.005 323C636.005 282.325 603.032 249.353 562.358 249.353C546.838 249.353 532.44 254.153 520.566 262.35C471.122 289.403 369.035 314.407 369.035 314.407L369.034 331.592C369.034 331.592 471.118 356.594 520.563 383.646Z" fill="#EB5A35"/>
<path fill-rule="evenodd" clip-rule="evenodd" d="M419.815 505.581C422.414 519.774 429.201 533.35 440.176 544.325C468.937 573.086 515.568 573.086 544.329 544.325C573.089 515.564 573.089 468.933 544.329 440.172C533.354 429.198 519.778 422.411 505.586 419.812C451.495 403.979 361.628 349.473 361.628 349.473L349.476 361.624C349.476 361.624 403.982 451.49 419.815 505.581Z" fill="#EB5A35"/>
<path fill-rule="evenodd" clip-rule="evenodd" d="M262.358 520.556C254.159 532.43 249.357 546.831 249.357 562.353C249.357 603.027 282.33 636 323.004 636C363.678 636 396.651 603.027 396.651 562.353C396.651 546.834 391.851 532.436 383.655 520.563C356.601 471.12 331.597 369.03 331.597 369.03L314.412 369.029C314.412 369.029 289.41 471.11 262.358 520.556Z" fill="#EB5A35"/>
<path fill-rule="evenodd" clip-rule="evenodd" d="M140.425 419.811C126.231 422.41 112.654 429.197 101.679 440.172C72.9176 468.933 72.9176 515.564 101.679 544.325C130.44 573.086 177.07 573.086 205.831 544.325C216.805 533.351 223.592 519.775 226.191 505.583C242.024 451.492 296.531 361.624 296.531 361.624L284.38 349.473C284.38 349.473 194.517 403.976 140.425 419.811Z" fill="#EB5A35"/>
<path fill-rule="evenodd" clip-rule="evenodd" d="M125.442 262.353C113.568 254.155 99.1683 249.353 83.647 249.353C42.9729 249.353 10 282.326 10 323C10 363.674 42.9729 396.647 83.647 396.647C99.1668 396.647 113.565 391.847 125.439 383.649C174.882 356.597 276.97 331.593 276.97 331.593L276.97 314.408C276.97 314.408 174.887 289.405 125.442 262.353Z" fill="#EB5A35"/>
<path fill-rule="evenodd" clip-rule="evenodd" d="M226.189 140.422C223.59 126.229 216.803 112.651 205.828 101.676C177.067 72.915 130.436 72.915 101.675 101.676C72.914 130.437 72.914 177.068 101.675 205.829C112.649 216.803 126.225 223.589 140.417 226.189C194.508 242.022 284.376 296.528 284.376 296.528L296.527 284.377C296.527 284.377 242.023 194.514 226.189 140.422Z" fill="#EB5A35"/>
<path fill-rule="evenodd" clip-rule="evenodd" d="M383.645 125.445C391.845 113.57 396.647 99.1699 396.647 83.6478C396.647 42.9736 363.674 10.0007 323 10.0007C282.326 10.0007 249.353 42.9736 249.353 83.6478C249.353 99.1666 254.153 113.564 262.349 125.437C289.402 174.88 314.407 276.971 314.407 276.971L331.592 276.971C331.592 276.971 356.594 174.891 383.645 125.445Z" fill="#EB5A35"/>
<path fill-rule="evenodd" clip-rule="evenodd" d="M505.584 226.189C519.777 223.59 533.355 216.803 544.33 205.828C573.091 177.067 573.091 130.436 544.33 101.675C515.569 72.9145 468.939 72.9145 440.178 101.675C429.204 112.649 422.417 126.225 419.817 140.417C403.985 194.508 349.478 284.376 349.478 284.376L361.629 296.528C361.629 296.528 451.492 242.024 505.584 226.189Z" fill="#EB5A35"/>
<path d="M317.15 264.663C317.746 257.483 328.255 257.483 328.851 264.663V264.663C329.338 270.542 337.22 272.11 339.92 266.865V266.865C343.218 260.459 352.927 264.481 350.73 271.342V271.342C348.93 276.96 355.612 281.425 360.114 277.613V277.613C365.612 272.957 373.043 280.388 368.387 285.886V285.886C364.575 290.388 369.04 297.07 374.658 295.27V295.27C381.519 293.073 385.541 302.782 379.135 306.08V306.08C373.89 308.78 375.458 316.662 381.337 317.149V317.149C388.517 317.745 388.517 328.254 381.337 328.85V328.85C375.458 329.337 373.89 337.219 379.135 339.919V339.919C385.541 343.217 381.519 352.926 374.658 350.729V350.729C369.04 348.929 364.575 355.611 368.387 360.113V360.113C373.043 365.611 365.612 373.042 360.114 368.386V368.386C355.612 364.574 348.93 369.039 350.73 374.657V374.657C352.927 381.518 343.218 385.54 339.92 379.134V379.134C337.22 373.889 329.338 375.457 328.851 381.336V381.336C328.255 388.516 317.746 388.516 317.15 381.336V381.336C316.663 375.457 308.781 373.889 306.081 379.134V379.134C302.783 385.54 293.074 381.518 295.271 374.657V374.657C297.071 369.039 290.389 364.574 285.887 368.386V368.386C280.389 373.042 272.958 365.611 277.614 360.113V360.113C281.426 355.611 276.961 348.929 271.343 350.729V350.729C264.482 352.926 260.46 343.217 266.866 339.919V339.919C272.111 337.219 270.543 329.337 264.664 328.85V328.85C257.484 328.254 257.484 317.745 264.664 317.149V317.149C270.543 316.662 272.111 308.78 266.866 306.08V306.08C260.46 302.782 264.482 293.073 271.343 295.27V295.27C276.961 297.07 281.426 290.388 277.614 285.886V285.886C272.958 280.388 280.389 272.957 285.887 277.613V277.613C290.389 281.425 297.071 276.96 295.271 271.342V271.342C293.074 264.481 302.783 260.459 306.081 266.865V266.865C308.781 272.11 316.663 270.542 317.15 264.663V264.663Z" fill="#F4B442"/>
<path d="M391.353 254.649L323.002 323" stroke="#DC8433" stroke-width="4.60294"/>
<circle cx="391.353" cy="254.649" r="13.8088" transform="rotate(45 391.353 254.649)" fill="#F4B442"/>
<path d="M412.304 286.009L323 322.999" stroke="#DC8433" stroke-width="4.60294"/>
<circle cx="412.306" cy="286.009" r="13.8088" transform="rotate(67.5 412.306 286.009)" fill="#F4B442"/>
<path d="M419.662 323L323 323" stroke="#DC8433" stroke-width="4.60294"/>
<circle cx="419.662" cy="322.999" r="13.8088" transform="rotate(90 419.662 322.999)" fill="#F4B442"/>
<path d="M412.304 359.99L323 322.999" stroke="#DC8433" stroke-width="4.60294"/>
<circle cx="412.305" cy="359.99" r="13.8088" transform="rotate(112.5 412.305 359.99)" fill="#F4B442"/>
<path d="M391.353 391.35L323.002 322.999" stroke="#DC8433" stroke-width="4.60294"/>
<circle cx="391.35" cy="391.35" r="13.8088" transform="rotate(135 391.35 391.35)" fill="#F4B442"/>
<path d="M359.99 412.304L322.999 323" stroke="#DC8433" stroke-width="4.60294"/>
<circle cx="359.991" cy="412.304" r="13.8088" transform="rotate(157.5 359.991 412.304)" fill="#F4B442"/>
<path d="M323 419.661L323 322.999" stroke="#DC8433" stroke-width="4.60294"/>
<circle cx="323" cy="419.661" r="13.8088" transform="rotate(180 323 419.661)" fill="#F4B442"/>
<path d="M286.011 412.303L323.002 323" stroke="#DC8433" stroke-width="4.60294"/>
<circle cx="286.013" cy="412.303" r="13.8088" transform="rotate(-157.5 286.013 412.303)" fill="#F4B442"/>
<path d="M254.653 391.35L323.003 322.999" stroke="#DC8433" stroke-width="4.60294"/>
<circle cx="254.653" cy="391.35" r="13.8088" transform="rotate(-135 254.653 391.35)" fill="#F4B442"/>
<path d="M233.702 359.99L323.005 323" stroke="#DC8433" stroke-width="4.60294"/>
<circle cx="233.698" cy="359.99" r="13.8088" transform="rotate(-112.5 233.698 359.99)" fill="#F4B442"/>
<path d="M226.339 323L323.001 323" stroke="#DC8433" stroke-width="4.60294"/>
<circle cx="226.339" cy="323" r="13.8088" transform="rotate(-90 226.339 323)" fill="#F4B442"/>
<path d="M233.702 286.009L323.005 323" stroke="#DC8433" stroke-width="4.60294"/>
<circle cx="233.701" cy="286.009" r="13.8088" transform="rotate(-67.5 233.701 286.009)" fill="#F4B442"/>
<path d="M254.653 254.649L323.003 323" stroke="#DC8433" stroke-width="4.60294"/>
<circle cx="254.655" cy="254.649" r="13.8088" transform="rotate(-45 254.655 254.649)" fill="#F4B442"/>
<path d="M286.015 233.696L323.006 322.999" stroke="#DC8433" stroke-width="4.60294"/>
<circle cx="286.015" cy="233.696" r="13.8088" transform="rotate(-22.5 286.015 233.696)" fill="#F4B442"/>
<path d="M323.005 226.338V322.999" stroke="#DC8433" stroke-width="4.60294"/>
<circle cx="323.006" cy="226.338" r="13.8088" fill="#F4B442"/>
<path d="M359.99 233.696L322.999 322.999" stroke="#DC8433" stroke-width="4.60294"/>
<circle cx="359.988" cy="233.696" r="13.8088" transform="rotate(22.5 359.988 233.696)" fill="#F4B442"/>
</g>
<defs>
<filter id="filter0_f_2_323" x="0.794122" y="0.794122" width="644.417" height="644.412" filterUnits="userSpaceOnUse" color-interpolation-filters="sRGB">
<feFlood flood-opacity="0" result="BackgroundImageFix"/>
<feBlend mode="normal" in="SourceGraphic" in2="BackgroundImageFix" result="shape"/>
<feGaussianBlur stdDeviation="4.60294" result="effect1_foregroundBlur_2_323"/>
</filter>
</defs>
</svg>
