<svg width="173" height="169" viewBox="0 0 173 169" fill="none" xmlns="http://www.w3.org/2000/svg">
<path d="M147.596 112.363C136.806 97.5126 116.02 94.2204 101.17 105.01C86.3189 115.8 83.0268 136.586 93.8165 151.436C104.606 166.287 124.24 161.118 131.4 146.618C147.569 144.169 158.386 127.214 147.596 112.363Z" fill="#742FAB"/>
<path d="M83.9327 80.882C81.6969 82.5064 87.3482 131.419 87.3482 131.419L130.435 100.115C130.435 100.115 86.1686 79.2575 83.9327 80.882Z" fill="#742FAB"/>
<path d="M78.3663 151.158C89.156 136.307 85.8639 115.521 71.0131 104.732C56.1623 93.9419 35.3765 97.2341 24.5868 112.085C13.7971 126.936 24.7804 144.011 40.7831 146.34C48.1089 160.96 67.5765 166.009 78.3663 151.158Z" fill="#742FAB"/>
<path d="M88.6339 80.8824C86.398 79.258 41.6255 99.7477 41.6255 99.7477L84.7123 131.052C84.7123 131.052 90.8698 82.5069 88.6339 80.8824Z" fill="#742FAB"/>
<path d="M20.0771 97.3062C37.5353 102.979 56.2864 93.4245 61.9589 75.9664C67.6314 58.5082 58.0772 39.7571 40.619 34.0846C23.1609 28.4121 10.3154 44.1344 13.0457 60.0735C1.4044 71.5588 2.61898 91.6337 20.0771 97.3062Z" fill="#742FAB"/>
<path d="M90.0858 85.3549C90.9399 82.7265 57.6175 46.4769 57.6175 46.4769L41.1598 97.1286C41.1598 97.1286 89.2318 87.9833 90.0858 85.3549Z" fill="#742FAB"/>
<path d="M53.2828 25.2294C53.2828 43.586 68.1637 58.467 86.5203 58.467C104.877 58.467 119.758 43.586 119.758 25.2294C119.758 6.87284 100.836 -0.485496 86.5203 7.03661C71.9998 -0.485764 53.2828 6.87285 53.2828 25.2294Z" fill="#742FAB"/>
<path d="M86.2832 88.1187C89.0469 88.1187 113.225 45.2255 113.225 45.2255L59.9668 45.2255C59.9668 45.2255 83.5195 88.1187 86.2832 88.1187Z" fill="#742FAB"/>
<path d="M132.094 34.535C114.636 40.2075 105.082 58.9586 110.755 76.4167C116.427 93.8748 135.178 103.429 152.636 97.7565C170.094 92.084 171.245 71.814 159.668 60.5238C162.335 44.3895 149.553 28.8625 132.094 34.535Z" fill="#742FAB"/>
<path d="M82.4808 85.3541C83.3349 87.9825 131.6 97.7226 131.6 97.7226L115.142 47.071C115.142 47.071 81.6268 82.7257 82.4808 85.3541Z" fill="#742FAB"/>
<path d="M82.214 61.187C82.7894 56.7515 89.2106 56.7515 89.786 61.187C90.2 64.3787 94.1352 65.6574 96.3462 63.3185C99.4188 60.0683 104.614 63.8427 102.472 67.7692C100.931 70.5948 103.363 73.9422 106.527 73.3497C110.923 72.5262 112.907 78.6332 108.866 80.5511C105.959 81.9311 105.959 86.0689 108.866 87.4489C112.907 89.3668 110.923 95.4738 106.527 94.6503C103.363 94.0578 100.931 97.4052 102.472 100.231C104.614 104.157 99.4188 107.932 96.3462 104.681C94.1352 102.343 90.2 103.621 89.786 106.813C89.2106 111.249 82.7894 111.249 82.214 106.813C81.8 103.621 77.8648 102.343 75.6538 104.681C72.5812 107.932 67.3863 104.157 69.5279 100.231C71.069 97.4052 68.6369 94.0578 65.4734 94.6503C61.0773 95.4738 59.093 89.3668 63.1336 87.4489C66.0412 86.0689 66.0412 81.9311 63.1336 80.5511C59.093 78.6332 61.0773 72.5262 65.4734 73.3497C68.6369 73.9422 71.069 70.5948 69.5279 67.7692C67.3863 63.8427 72.5812 60.0683 75.6538 63.3185C77.8648 65.6574 81.8 64.3787 82.214 61.187Z" fill="#EED2F8" stroke="#824E8A" stroke-width="2"/>
</svg>
