<svg width="76" height="75" viewBox="0 0 76 75" fill="none" xmlns="http://www.w3.org/2000/svg">
<path fill-rule="evenodd" clip-rule="evenodd" d="M37.9024 19.9253C44.3259 23.2205 51.56 29.6737 57.7676 38.2177C69.1747 53.9182 66.6712 65.3534 56.5069 62.9079C55.7692 73.2738 44.0427 72.1778 32.6356 56.4772C26.6738 48.2716 22.8387 39.7615 21.5266 32.7866L16.4668 11.744C15.9446 9.57247 18.3121 7.8561 20.2135 9.02757L37.9024 19.9253Z" fill="#C86EAC"/>
<path fill-rule="evenodd" clip-rule="evenodd" d="M54.3776 31.9316C53.2286 39.059 49.3267 47.9332 43.1191 56.4772C31.712 72.1778 20.0629 73.3304 19.2477 62.9079C9.16121 65.4095 6.57992 53.9183 17.987 38.2177C23.949 30.0118 30.8577 23.7345 37.0858 20.3313L55.5345 9.01699C57.4383 7.84938 59.8023 9.57055 59.2757 11.741L54.3776 31.9316Z" fill="#C86EAC"/>
<path fill-rule="evenodd" clip-rule="evenodd" d="M48.0496 51.311C40.9161 52.4208 31.2705 51.4521 21.2263 48.1886C2.76927 42.1915 -1.92672 31.4688 7.73373 27.4728C2.23769 18.653 12.3689 12.647 30.8259 18.6441C40.4722 21.7784 48.577 26.409 53.7383 31.2805L70.2003 45.3303C71.8991 46.7802 70.9927 49.5603 68.7658 49.7302L48.0496 51.311Z" fill="#C86EAC"/>
<path fill-rule="evenodd" clip-rule="evenodd" d="M27.6634 51.2815C24.4036 44.84 22.3442 35.3672 22.3442 24.8063C22.3442 5.39933 31.091 -2.38033 37.8767 5.57247C44.5665 -2.38005 53.4092 5.39932 53.4092 24.8062C53.4092 34.9494 51.5095 44.0887 48.4712 50.5028L40.1964 70.5C39.3425 72.5636 36.4183 72.5607 35.5686 70.4953L27.6634 51.2815Z" fill="#C86EAC"/>
<path fill-rule="evenodd" clip-rule="evenodd" d="M21.3921 31.8842C26.5109 26.7934 34.8838 21.9075 44.9279 18.6439C63.385 12.6469 73.4868 18.5615 68.0202 27.4726C77.6507 31.3775 72.9846 42.1914 54.5275 48.1884C44.8809 51.3228 35.6019 52.3404 28.5629 51.4329L6.98729 49.7425C4.76072 49.5681 3.85993 46.7861 5.56166 45.3397L21.3921 31.8842Z" fill="#C86EAC"/>
<path d="M35.4109 23.5187C35.7591 20.8349 39.6444 20.8349 39.9925 23.5187C40.243 25.4499 42.6241 26.2236 43.9619 24.8084C45.821 22.8418 48.9642 25.1255 47.6684 27.5014C46.7359 29.211 48.2075 31.2365 50.1216 30.8779C52.7816 30.3797 53.9822 34.0748 51.5374 35.2352C49.7781 36.0703 49.7781 38.5739 51.5374 39.4089C53.9822 40.5693 52.7816 44.2644 50.1216 43.7662C48.2075 43.4077 46.7359 45.4331 47.6684 47.1428C48.9642 49.5186 45.821 51.8023 43.9619 49.8357C42.6241 48.4206 40.243 49.1942 39.9925 51.1255C39.6444 53.8092 35.7591 53.8092 35.4109 51.1255C35.1604 49.1942 32.7794 48.4206 31.4415 49.8357C29.5824 51.8023 26.4392 49.5186 27.735 47.1428C28.6675 45.4331 27.1959 43.4077 25.2818 43.7662C22.6218 44.2644 21.4212 40.5693 23.866 39.4089C25.6253 38.5739 25.6253 36.0703 23.866 35.2352C21.4212 34.0748 22.6218 30.3797 25.2818 30.8779C27.1959 31.2365 28.6675 29.211 27.735 27.5014C26.4392 25.1255 29.5824 22.8418 31.4415 24.8084C32.7794 26.2236 35.1604 25.4499 35.4109 23.5187Z" fill="#F4B442"/>
<path d="M48.1475 31.3464L27.3262 43.3676" stroke="#DC8433" stroke-width="0.749129" stroke-linecap="round"/>
<path d="M49.7583 37.3572L25.7159 37.3572" stroke="#DC8433" stroke-width="0.749129" stroke-linecap="round"/>
<path d="M48.1475 43.3677L27.3262 31.3465" stroke="#DC8433" stroke-width="0.749129" stroke-linecap="round"/>
<path d="M43.7476 47.7678L31.7264 26.9465" stroke="#DC8433" stroke-width="0.749129" stroke-linecap="round"/>
<path d="M37.7373 49.3784L37.7373 25.3361" stroke="#DC8433" stroke-width="0.749129" stroke-linecap="round"/>
<path d="M31.7266 47.7678L43.7477 26.9465" stroke="#DC8433" stroke-width="0.749129" stroke-linecap="round"/>
<path d="M27.3267 43.3677L48.148 31.3465" stroke="#DC8433" stroke-width="0.749129" stroke-linecap="round"/>
<path d="M25.7158 37.3572H49.7582" stroke="#DC8433" stroke-width="0.749129" stroke-linecap="round"/>
<path d="M27.3262 31.3464L48.1475 43.3676" stroke="#DC8433" stroke-width="0.749129" stroke-linecap="round"/>
<path d="M31.7261 26.9465L43.7473 47.7678" stroke="#DC8433" stroke-width="0.749129" stroke-linecap="round"/>
</svg>
