<svg width="216" height="216" viewBox="0 0 216 216" fill="none" xmlns="http://www.w3.org/2000/svg">
<path d="M31.6346 184.366C49.9915 173.095 90.9177 142.087 107.767 108.233L31.6346 184.366Z" fill="white"/>
<path d="M31.6349 184.367C42.9067 166.01 73.9137 125.084 107.768 108.234L31.6349 184.367Z" fill="white"/>
<path d="M108.236 107.765C126.593 96.4932 167.519 65.4861 184.369 31.632L108.236 107.765Z" fill="white"/>
<path d="M108.236 107.765C119.508 89.4084 150.515 48.4821 184.369 31.6323L108.236 107.765Z" fill="white"/>
<path d="M8.22206 149.329C29.4952 145.94 79.172 132.955 107.694 108.126L8.22206 149.329Z" fill="white"/>
<path d="M8.22228 149.329C25.6609 136.683 69.9695 110.738 107.695 108.126L8.22228 149.329Z" fill="white"/>
<path d="M108.307 107.872C129.58 104.484 179.256 91.4986 207.779 66.6697L108.307 107.872Z" fill="white"/>
<path d="M108.307 107.873C125.745 95.2268 170.054 69.2818 207.779 66.6701L108.307 107.873Z" fill="white"/>
<path d="M0.000975346 107.999C20.9516 113.009 71.8162 120.023 107.669 107.999L0.000975346 107.999Z" fill="white"/>
<path d="M0.000977779 108C20.9516 102.99 71.8162 95.9757 107.669 108L0.000977779 108Z" fill="white"/>
<path d="M108.332 107.999C129.282 113.009 180.147 120.023 216 107.999L108.332 107.999Z" fill="white"/>
<path d="M108.332 108C129.282 102.99 180.147 95.976 216 108L108.332 108Z" fill="white"/>
<path d="M8.2213 66.6694C25.66 79.3154 69.9686 105.26 107.694 107.872L8.2213 66.6694Z" fill="white"/>
<path d="M8.22109 66.6698C29.4942 70.0586 79.171 83.0436 107.694 107.873L8.22109 66.6698Z" fill="white"/>
<path d="M108.306 108.126C125.744 120.772 170.053 146.717 207.778 149.329L108.306 108.126Z" fill="white"/>
<path d="M108.306 108.127C129.579 111.515 179.256 124.5 207.778 149.329L108.306 108.127Z" fill="white"/>
<path d="M31.633 31.6319C42.9047 49.9889 73.9118 90.9151 107.766 107.765L31.633 31.6319Z" fill="white"/>
<path d="M31.6327 31.6322C49.9896 42.904 90.9158 73.9111 107.766 107.765L31.6327 31.6322Z" fill="white"/>
<path d="M108.235 108.234C119.506 126.59 150.513 167.517 184.367 184.366L108.235 108.234Z" fill="white"/>
<path d="M108.234 108.234C126.591 119.506 167.517 150.513 184.367 184.367L108.234 108.234Z" fill="white"/>
<path d="M66.6703 8.22109C70.0592 29.4942 83.0442 79.171 107.873 107.693L66.6703 8.22109Z" fill="white"/>
<path d="M66.6696 8.22129C79.3157 25.66 105.261 69.9685 107.872 107.694L66.6696 8.22129Z" fill="white"/>
<path d="M108.126 108.306C111.515 129.579 124.5 179.256 149.329 207.778L108.126 108.306Z" fill="white"/>
<path d="M108.126 108.306C120.772 125.745 146.717 170.053 149.329 207.778L108.126 108.306Z" fill="white"/>
<path d="M108 0.000487399C102.99 20.9511 95.976 71.8157 108 107.669L108 0.000487399Z" fill="white"/>
<path d="M107.999 0.000489164C113.009 20.9511 120.023 71.8157 107.999 107.669L107.999 0.000489164Z" fill="white"/>
<path d="M107.999 108.331C102.989 129.282 95.9755 180.147 107.999 215.999L107.999 108.331Z" fill="white"/>
<path d="M107.999 108.331C113.009 129.282 120.023 180.146 107.999 215.999L107.999 108.331Z" fill="white"/>
<path d="M149.328 8.22154C136.682 25.6602 110.737 69.9688 108.126 107.694L149.328 8.22154Z" fill="white"/>
<path d="M149.328 8.22133C145.939 29.4944 132.954 79.1713 108.125 107.694L149.328 8.22133Z" fill="white"/>
<path d="M107.871 108.306C95.2254 125.744 69.2803 170.053 66.6686 207.778L107.871 108.306Z" fill="white"/>
<path d="M107.871 108.306C104.482 129.579 91.4969 179.255 66.668 207.778L107.871 108.306Z" fill="white"/>
<path d="M184.365 31.6332C166.008 42.905 125.082 73.912 108.232 107.766L184.365 31.6332Z" fill="white"/>
<path d="M184.365 31.6327C173.093 49.9896 142.086 90.9158 108.232 107.766L184.365 31.6327Z" fill="white"/>
<path d="M107.764 108.234C89.4069 119.506 48.4806 150.513 31.6309 184.367L107.764 108.234Z" fill="white"/>
<path d="M107.764 108.234C96.4917 126.591 65.4846 167.517 31.6306 184.367L107.764 108.234Z" fill="white"/>
<path d="M207.776 66.6705C186.503 70.0594 136.826 83.0444 108.304 107.873L207.776 66.6705Z" fill="white"/>
<path d="M207.776 66.6698C190.337 79.3159 146.029 105.261 108.303 107.873L207.776 66.6698Z" fill="white"/>
<path d="M107.692 108.127C86.4184 111.516 36.7416 124.501 8.21911 149.33L107.692 108.127Z" fill="white"/>
<path d="M107.691 108.126C90.2526 120.772 45.944 146.717 8.2189 149.329L107.691 108.126Z" fill="white"/>
<path d="M215.999 108C195.048 102.99 144.184 95.9762 108.331 108L215.999 108Z" fill="white"/>
<path d="M215.999 107.999C195.048 113.009 144.184 120.023 108.331 107.999L215.999 107.999Z" fill="white"/>
<path d="M107.668 108C86.7178 102.99 35.8533 95.976 0.000305907 108L107.668 108Z" fill="white"/>
<path d="M107.668 107.999C86.7178 113.009 35.8533 120.023 0.000304445 107.999L107.668 107.999Z" fill="white"/>
<path d="M207.777 149.329C190.338 136.683 146.029 110.738 108.304 108.127L207.777 149.329Z" fill="white"/>
<path d="M207.777 149.329C186.504 145.94 136.827 132.955 108.305 108.126L207.777 149.329Z" fill="white"/>
<path d="M107.692 107.873C90.2536 95.2268 45.945 69.2818 8.21986 66.6701L107.692 107.873Z" fill="white"/>
<path d="M107.692 107.872C86.4194 104.483 36.7426 91.4984 8.22007 66.6695L107.692 107.872Z" fill="white"/>
<path d="M184.365 184.367C173.093 166.01 142.086 125.084 108.232 108.234L184.365 184.367Z" fill="white"/>
<path d="M184.365 184.367C166.008 173.095 125.082 142.088 108.232 108.234L184.365 184.367Z" fill="white"/>
<path d="M107.764 107.765C96.4917 89.4084 65.4847 48.4821 31.6306 31.6324L107.764 107.765Z" fill="white"/>
<path d="M107.764 107.765C89.4069 96.493 48.4806 65.4859 31.6309 31.6319L107.764 107.765Z" fill="white"/>
<path d="M149.326 207.778C145.937 186.505 132.952 136.828 108.123 108.306L149.326 207.778Z" fill="white"/>
<path d="M149.327 207.778C136.68 190.339 110.735 146.03 108.124 108.305L149.327 207.778Z" fill="white"/>
<path d="M107.87 107.693C104.481 86.4201 91.4959 36.7433 66.6669 8.22084L107.87 107.693Z" fill="white"/>
<path d="M107.87 107.693C95.2244 90.2544 69.2793 45.9458 66.6676 8.22064L107.87 107.693Z" fill="white"/>
<path d="M107.996 215.999C113.006 195.048 120.02 144.184 107.996 108.331L107.996 215.999Z" fill="white"/>
<path d="M107.997 215.999C102.987 195.048 95.973 144.184 107.997 108.331L107.997 215.999Z" fill="white"/>
<path d="M107.997 107.668C113.007 86.7176 120.021 35.853 107.997 6.15522e-05L107.997 107.668Z" fill="white"/>
<path d="M107.997 107.668C102.987 86.7176 95.9735 35.853 107.997 6.05181e-05L107.997 107.668Z" fill="white"/>
<path d="M66.6715 207.777C79.3176 190.339 105.263 146.03 107.874 108.305L66.6715 207.777Z" fill="white"/>
<path d="M66.6722 207.778C70.0611 186.505 83.0461 136.828 107.875 108.305L66.6722 207.778Z" fill="white"/>
<path d="M108.129 107.693C120.775 90.2546 146.72 45.946 149.331 8.22085L108.129 107.693Z" fill="white"/>
<path d="M108.129 107.693C111.518 86.4204 124.503 36.7435 149.332 8.22106L108.129 107.693Z" fill="white"/>
<path d="M106.23 90.347C106.41 88.1743 109.59 88.1743 109.77 90.347C109.918 92.126 112.303 92.6004 113.12 91.0133C114.118 89.0749 117.056 90.2919 116.391 92.3682C115.846 94.0682 117.868 95.4192 119.231 94.2656C120.894 92.8567 123.143 95.1054 121.734 96.7692C120.581 98.1314 121.932 100.153 123.632 99.6088C125.708 98.9438 126.925 101.882 124.986 102.88C123.399 103.697 123.874 106.082 125.653 106.229C127.825 106.41 127.825 109.59 125.653 109.77C123.874 109.918 123.399 112.303 124.986 113.12C126.925 114.118 125.708 117.056 123.632 116.391C121.932 115.846 120.581 117.868 121.734 119.23C123.143 120.894 120.894 123.143 119.231 121.734C117.868 120.58 115.846 121.931 116.391 123.631C117.056 125.708 114.118 126.925 113.12 124.986C112.303 123.399 109.918 123.874 109.77 125.652C109.59 127.825 106.41 127.825 106.23 125.652C106.082 123.874 103.697 123.399 102.88 124.986C101.882 126.925 98.9441 125.708 99.6091 123.631C100.154 121.931 98.1317 120.58 96.7694 121.734C95.1057 123.143 92.8569 120.894 94.2659 119.23C95.4195 117.868 94.0685 115.846 92.3685 116.391C90.2922 117.056 89.0752 114.118 91.0136 113.12C92.6007 112.303 92.1263 109.918 90.3473 109.77C88.1746 109.59 88.1746 106.41 90.3473 106.229C92.1263 106.082 92.6007 103.697 91.0136 102.88C89.0752 101.882 90.2922 98.9438 92.3685 99.6088C94.0685 100.153 95.4195 98.1314 94.2659 96.7692C92.8569 95.1054 95.1057 92.8567 96.7694 94.2656C98.1317 95.4192 100.154 94.0682 99.6091 92.3682C98.9441 90.2919 101.882 89.0749 102.88 91.0133C103.697 92.6004 106.082 92.126 106.23 90.347Z" fill="#F4B542" stroke="#638A4E" stroke-width="2"/>
</svg>
